<?xml version="1.0" encoding="UTF-8" standalone="no"?>
<!DOCTYPE svg PUBLIC "-//W3C//DTD SVG 20010904//EN"
              "http://www.w3.org/TR/2001/REC-SVG-20010904/DTD/svg10.dtd">

<svg xmlns="http://www.w3.org/2000/svg"
     width="6.4in" height="3.6in"
     viewBox="0 0 576 324">
  <path id="Selection #1"
        fill="black" stroke="black" stroke-width="1"
        d="M 266.00,67.44
           C 292.25,64.07 317.46,72.16 334.54,93.00
             361.55,125.96 352.93,180.73 315.00,201.69
             298.64,210.73 290.08,211.21 272.00,211.00
             244.42,210.67 218.77,189.40 209.70,164.00
             205.55,152.38 205.94,145.90 206.00,134.00
             206.05,124.56 208.60,115.44 212.76,107.00
             223.72,84.74 241.86,71.90 266.00,67.44 Z
           M 268.00,68.17
           C 234.70,72.80 207.05,100.58 207.00,135.00
             206.98,145.17 206.54,150.97 209.75,161.00
             218.19,187.43 243.48,209.66 272.00,210.00
             287.60,210.18 295.43,210.22 310.00,203.22
             353.34,182.39 362.75,121.83 328.96,88.04
             311.62,70.70 291.49,66.74 268.00,68.17 Z
           M 242.00,85.00
           C 242.00,85.00 313.00,85.00 313.00,85.00
             313.00,85.00 313.00,98.00 313.00,98.00
             313.00,98.00 256.00,98.00 256.00,98.00
             256.00,98.00 256.00,128.00 256.00,128.00
             256.00,128.00 313.00,128.00 313.00,128.00
             313.00,128.00 313.00,141.00 313.00,141.00
             313.00,141.00 256.00,141.00 256.00,141.00
             256.00,141.00 256.00,181.00 256.00,181.00
             256.00,181.00 313.00,181.00 313.00,181.00
             313.00,181.00 313.00,194.00 313.00,194.00
             313.00,194.00 242.00,194.00 242.00,194.00
             242.00,194.00 242.00,85.00 242.00,85.00 Z" />
</svg>
