<?xml version="1.0" encoding="UTF-8" standalone="no"?>
<!DOCTYPE svg PUBLIC "-//W3C//DTD SVG 20010904//EN"
              "http://www.w3.org/TR/2001/REC-SVG-20010904/DTD/svg10.dtd">

<svg xmlns="http://www.w3.org/2000/svg"
     width="6.4in" height="3.6in"
     viewBox="0 0 576 324">
  <path id="Selection"
        fill="black" stroke="black" stroke-width="1"
        d="M 266.00,67.44
           C 292.25,64.07 317.46,72.16 334.54,93.00
             361.55,125.96 352.93,180.73 315.00,201.69
             298.64,210.73 290.08,211.21 272.00,211.00
             244.42,210.67 218.77,189.40 209.70,164.00
             205.55,152.38 205.94,145.90 206.00,134.00
             206.05,124.56 208.60,115.44 212.76,107.00
             223.72,84.74 241.86,71.90 266.00,67.44 Z
           M 268.00,68.17
           C 234.70,72.80 207.05,100.58 207.00,135.00
             206.98,145.17 206.54,150.97 209.75,161.00
             218.19,187.43 243.48,209.66 272.00,210.00
             287.60,210.18 295.43,210.22 310.00,203.22
             353.34,182.39 362.75,121.83 328.96,88.04
             311.62,70.70 291.49,66.74 268.00,68.17 Z
           M 237.00,170.00
           C 237.00,170.00 251.00,177.22 251.00,177.22
             262.41,182.58 278.76,185.23 291.00,181.56
             298.25,179.39 305.30,174.08 305.90,166.00
             306.92,152.42 294.79,148.92 284.00,146.80
             264.57,142.99 239.09,142.02 238.04,116.00
             237.09,92.51 259.90,83.01 280.00,83.74
             291.67,84.17 294.42,84.11 306.00,87.43
             308.49,88.14 313.48,89.51 315.01,91.65
             316.25,93.39 316.00,96.90 316.00,99.00
             316.00,99.00 316.00,107.00 316.00,107.00
             316.00,107.00 303.00,100.45 303.00,100.45
             292.26,96.10 287.24,95.95 276.00,96.00
             258.40,96.08 245.33,109.57 255.65,122.90
             260.05,128.58 268.37,129.92 275.00,131.20
             293.43,134.75 319.74,136.26 320.00,161.00
             320.04,165.42 319.97,168.76 318.45,173.00
             313.51,186.83 297.00,194.83 283.00,195.00
             283.00,195.00 269.00,195.00 269.00,195.00
             260.82,194.90 253.67,192.92 246.00,190.33
             243.69,189.55 239.43,188.37 237.99,186.35
             236.75,184.61 237.00,181.10 237.00,179.00
             237.00,179.00 237.00,170.00 237.00,170.00 Z" />
</svg>
